<mxfile host="Electron" modified="2023-11-04T21:25:37.633Z" agent="Mozilla/5.0 (X11; Linux x86_64) AppleWebKit/537.36 (KHTML, like Gecko) draw.io/22.0.3 Chrome/114.0.5735.289 Electron/25.8.4 Safari/537.36" etag="ti9LouO3TgQnwjBWMhN7" version="22.0.3" type="device">
  <diagram name="Page-1" id="UfQJO6CUFlPfXOqMm0jI">
    <mxGraphModel dx="1730" dy="495" grid="1" gridSize="10" guides="1" tooltips="1" connect="1" arrows="1" fold="1" page="1" pageScale="1" pageWidth="850" pageHeight="1100" math="0" shadow="0">
      <root>
        <mxCell id="0" />
        <mxCell id="1" parent="0" />
        <mxCell id="PSug9UfairCI25Zxhqm9-1" value="Identification" style="rounded=0;whiteSpace=wrap;html=1;fontSize=18;fillColor=#dae8fc;strokeColor=#6c8ebf;" vertex="1" parent="1">
          <mxGeometry x="-20" y="140" width="170" height="50" as="geometry" />
        </mxCell>
        <mxCell id="PSug9UfairCI25Zxhqm9-3" value="Initiation" style="rounded=0;whiteSpace=wrap;html=1;fontSize=18;fillColor=#fffbcc;strokeColor=#D7C202;" vertex="1" parent="1">
          <mxGeometry x="370" y="140" width="200" height="50" as="geometry" />
        </mxCell>
        <mxCell id="PSug9UfairCI25Zxhqm9-4" value="Development and deployment (release)" style="rounded=0;whiteSpace=wrap;html=1;fontSize=18;fillColor=#ffe6cc;strokeColor=#d79b00;" vertex="1" parent="1">
          <mxGeometry x="570" y="140" width="190" height="50" as="geometry" />
        </mxCell>
        <mxCell id="PSug9UfairCI25Zxhqm9-5" value="Operation" style="rounded=0;whiteSpace=wrap;html=1;fontSize=18;fillColor=#f8cecc;strokeColor=#b85450;" vertex="1" parent="1">
          <mxGeometry x="760" y="140" width="150" height="50" as="geometry" />
        </mxCell>
        <mxCell id="PSug9UfairCI25Zxhqm9-7" value="&lt;div&gt;Define Strategic Objectives&lt;/div&gt;&lt;div&gt;Identify Programs&lt;/div&gt;&lt;div&gt;Prioritize Criteria&lt;/div&gt;&lt;div&gt;Analyze Stakeholders&lt;/div&gt;&lt;div&gt;Select Business Sponsor&lt;/div&gt;&lt;div&gt;Create Project Portfolio&lt;/div&gt;" style="rounded=0;whiteSpace=wrap;html=1;align=center;fontSize=13;fillColor=#dae8fc;strokeColor=#6c8ebf;" vertex="1" parent="1">
          <mxGeometry x="-20" y="190" width="170" height="130" as="geometry" />
        </mxCell>
        <mxCell id="PSug9UfairCI25Zxhqm9-8" value="High-Level Requirements Analysis&lt;div&gt;&lt;span style=&quot;background-color: initial;&quot;&gt;Initial Scoping and Planning&lt;/span&gt;&lt;br&gt;&lt;/div&gt;&lt;div&gt;&lt;span style=&quot;background-color: initial;&quot;&gt;Stakeholder Meetings&lt;/span&gt;&lt;br&gt;&lt;/div&gt;&lt;div&gt;&lt;div&gt;Estimate Value&lt;/div&gt;&lt;div&gt;Plan Releases&lt;/div&gt;&lt;/div&gt;&lt;div&gt;Document Results in VC&lt;/div&gt;" style="rounded=0;whiteSpace=wrap;html=1;align=center;fontSize=13;fillColor=#d5e8d4;strokeColor=#82b366;" vertex="1" parent="1">
          <mxGeometry x="150" y="190" width="230" height="130" as="geometry" />
        </mxCell>
        <mxCell id="PSug9UfairCI25Zxhqm9-9" value="&lt;div&gt;&lt;span style=&quot;background-color: initial;&quot;&gt;Set Up Infrastructure&lt;/span&gt;&lt;br&gt;&lt;/div&gt;&lt;div&gt;&lt;div&gt;Provide Resources&lt;/div&gt;&lt;div&gt;Define Roles&lt;/div&gt;&lt;div&gt;&lt;div style=&quot;border-color: var(--border-color);&quot;&gt;Basic CI Environment&lt;/div&gt;&lt;/div&gt;&lt;div&gt;Prepare Test Environment&lt;/div&gt;&lt;div&gt;Explore System Design&lt;/div&gt;&lt;div&gt;Create Proof-of-Concepts&lt;/div&gt;&lt;div&gt;Build Project Structure&lt;/div&gt;&lt;/div&gt;" style="rounded=0;whiteSpace=wrap;html=1;align=center;fontSize=13;fillColor=#fffbcc;strokeColor=#D7C202;" vertex="1" parent="1">
          <mxGeometry x="381" y="190" width="189" height="130" as="geometry" />
        </mxCell>
        <mxCell id="PSug9UfairCI25Zxhqm9-10" value="&lt;div&gt;Follow Iterative Development&lt;/div&gt;&lt;div&gt;Perform Continuous Testing&lt;/div&gt;&lt;div&gt;Deploy Incrementally&lt;/div&gt;&lt;div&gt;Collect Customer Feedback&lt;/div&gt;&lt;div&gt;Deliver Production-Ready Code&lt;/div&gt;&lt;div&gt;Apply Agile Methodologies&lt;/div&gt;&lt;div&gt;Address Agile Challenges&lt;/div&gt;" style="rounded=0;whiteSpace=wrap;html=1;align=center;fontSize=13;fillColor=#ffe6cc;strokeColor=#d79b00;" vertex="1" parent="1">
          <mxGeometry x="570" y="190" width="190" height="130" as="geometry" />
        </mxCell>
        <mxCell id="PSug9UfairCI25Zxhqm9-12" value="&lt;div&gt;&lt;span style=&quot;background-color: initial;&quot;&gt;Manage Changes&lt;/span&gt;&lt;br&gt;&lt;/div&gt;&lt;div&gt;&lt;span style=&quot;background-color: initial;&quot;&gt;Combine Development&lt;/span&gt;&lt;/div&gt;&lt;div&gt;&lt;span style=&quot;background-color: initial;&quot;&gt;and Operation Phases&lt;/span&gt;&lt;br&gt;&lt;/div&gt;&lt;div&gt;Monitor and Adapt&lt;/div&gt;&lt;div&gt;Reduce Risks&lt;/div&gt;&lt;div&gt;Sustain Agile Operations&lt;/div&gt;" style="rounded=0;whiteSpace=wrap;html=1;align=center;fontSize=13;fillColor=#f8cecc;strokeColor=#b85450;" vertex="1" parent="1">
          <mxGeometry x="760" y="190" width="150" height="130" as="geometry" />
        </mxCell>
        <mxCell id="PSug9UfairCI25Zxhqm9-22" value="" style="triangle;whiteSpace=wrap;html=1;fillColor=#f5f5f5;fontColor=#333333;strokeColor=#666666;" vertex="1" parent="1">
          <mxGeometry x="561" y="153.5" width="19" height="23" as="geometry" />
        </mxCell>
        <mxCell id="PSug9UfairCI25Zxhqm9-23" value="" style="triangle;whiteSpace=wrap;html=1;fillColor=#f5f5f5;fontColor=#333333;strokeColor=#666666;" vertex="1" parent="1">
          <mxGeometry x="752" y="153.5" width="19" height="23" as="geometry" />
        </mxCell>
        <mxCell id="PSug9UfairCI25Zxhqm9-2" value="Inception" style="rounded=0;whiteSpace=wrap;html=1;fontSize=18;fillColor=#d5e8d4;strokeColor=#82b366;" vertex="1" parent="1">
          <mxGeometry x="150" y="140" width="230" height="50" as="geometry" />
        </mxCell>
        <mxCell id="PSug9UfairCI25Zxhqm9-21" value="Continue or Not?" style="triangle;whiteSpace=wrap;html=1;fillColor=#f5f5f5;fontColor=#333333;strokeColor=#666666;horizontal=0;align=center;verticalAlign=top;" vertex="1" parent="1">
          <mxGeometry x="367" y="140" width="44" height="180" as="geometry" />
        </mxCell>
        <mxCell id="PSug9UfairCI25Zxhqm9-14" value="" style="triangle;whiteSpace=wrap;html=1;fillColor=#f5f5f5;fontColor=#333333;strokeColor=#666666;" vertex="1" parent="1">
          <mxGeometry x="141" y="155" width="19" height="23" as="geometry" />
        </mxCell>
      </root>
    </mxGraphModel>
  </diagram>
</mxfile>
